<svg xmlns="http://www.w3.org/2000/svg" xmlns:xlink="http://www.w3.org/1999/xlink" width="2000" zoomAndPan="magnify" viewBox="0 0 1500 1499.999933" height="2000" preserveAspectRatio="xMidYMid meet" version="1.0"><defs><g/><clipPath id="1891cbf142"><path d="M 0.71875 0.238281 L 755.519531 0.238281 L 755.519531 187 L 0.71875 187 Z M 0.71875 0.238281 " clip-rule="nonzero"/></clipPath><clipPath id="3b41eeba00"><rect x="0" width="756" y="0" height="187"/></clipPath><clipPath id="99de825340"><path d="M 12 176 L 744 176 L 744 234.238281 L 12 234.238281 Z M 12 176 " clip-rule="nonzero"/></clipPath><clipPath id="6f1fdd15e4"><rect x="0" width="732" y="0" height="59"/></clipPath><clipPath id="c462856b9f"><rect x="0" width="756" y="0" height="235"/></clipPath></defs><g transform="matrix(1, 0, 0, 1, 372, 630)"><g clip-path="url(#c462856b9f)"><g clip-path="url(#1891cbf142)"><g transform="matrix(1, 0, 0, 1, 0, 0.000000000000113687)"><g clip-path="url(#3b41eeba00)"><g fill="#ffffff" fill-opacity="1"><g transform="translate(0.917776, 141.778549)"><g><path d="M 9.765625 0 L 9.765625 -100.53125 L 28.15625 -100.53125 L 75.40625 -29.734375 L 75.40625 -100.53125 L 93.78125 -100.53125 L 93.78125 0 L 75.40625 0 L 28.15625 -70.65625 L 28.15625 0 Z M 9.765625 0 "/></g></g></g><g fill="#ffffff" fill-opacity="1"><g transform="translate(104.469819, 141.778549)"><g><path d="M 43.953125 1.71875 C 36.765625 1.71875 30.394531 0.1875 24.84375 -2.875 C 19.289062 -5.9375 14.929688 -10.242188 11.765625 -15.796875 C 8.609375 -21.347656 7.03125 -27.765625 7.03125 -35.046875 C 7.03125 -42.421875 8.585938 -48.976562 11.703125 -54.71875 C 14.816406 -60.46875 19.125 -64.945312 24.625 -68.15625 C 30.132812 -71.363281 36.625 -72.96875 44.09375 -72.96875 C 51.082031 -72.96875 57.253906 -71.429688 62.609375 -68.359375 C 67.972656 -65.296875 72.164062 -61.109375 75.1875 -55.796875 C 78.207031 -50.484375 79.71875 -44.570312 79.71875 -38.0625 C 79.71875 -37.007812 79.691406 -35.90625 79.640625 -34.75 C 79.585938 -33.601562 79.515625 -32.410156 79.421875 -31.171875 L 25.28125 -31.171875 C 25.664062 -25.617188 27.601562 -21.257812 31.09375 -18.09375 C 34.59375 -14.9375 38.832031 -13.359375 43.8125 -13.359375 C 47.539062 -13.359375 50.671875 -14.195312 53.203125 -15.875 C 55.742188 -17.550781 57.640625 -19.726562 58.890625 -22.40625 L 77.5625 -22.40625 C 76.21875 -17.90625 73.988281 -13.8125 70.875 -10.125 C 67.769531 -6.4375 63.941406 -3.539062 59.390625 -1.4375 C 54.835938 0.664062 49.691406 1.71875 43.953125 1.71875 Z M 44.09375 -58.03125 C 39.59375 -58.03125 35.617188 -56.757812 32.171875 -54.21875 C 28.722656 -51.675781 26.519531 -47.820312 25.5625 -42.65625 L 61.046875 -42.65625 C 60.753906 -47.34375 59.023438 -51.078125 55.859375 -53.859375 C 52.703125 -56.640625 48.78125 -58.03125 44.09375 -58.03125 Z M 44.09375 -58.03125 "/></g></g></g><g fill="#ffffff" fill-opacity="1"><g transform="translate(185.472801, 141.778549)"><g><path d="M 2.578125 0 L 28.4375 -35.625 L 2.578125 -71.234375 L 22.265625 -71.234375 L 40.359375 -45.953125 L 58.3125 -71.234375 L 78.125 -71.234375 L 52.140625 -35.625 L 78.125 0 L 58.3125 0 L 40.359375 -25.28125 L 22.265625 0 Z M 2.578125 0 "/></g></g></g><g fill="#ffffff" fill-opacity="1"><g transform="translate(266.045195, 141.778549)"><g><path d="M 48.546875 1.71875 C 41.171875 1.71875 34.515625 0.257812 28.578125 -2.65625 C 22.640625 -5.570312 17.921875 -10 14.421875 -15.9375 C 10.929688 -21.875 9.1875 -29.390625 9.1875 -38.484375 L 9.1875 -100.53125 L 27.578125 -100.53125 L 27.578125 -38.34375 C 27.578125 -30.5 29.46875 -24.660156 33.25 -20.828125 C 37.03125 -16.992188 42.269531 -15.078125 48.96875 -15.078125 C 55.582031 -15.078125 60.800781 -16.992188 64.625 -20.828125 C 68.457031 -24.660156 70.375 -30.5 70.375 -38.34375 L 70.375 -100.53125 L 88.765625 -100.53125 L 88.765625 -38.484375 C 88.765625 -29.390625 86.941406 -21.875 83.296875 -15.9375 C 79.660156 -10 74.800781 -5.570312 68.71875 -2.65625 C 62.644531 0.257812 55.921875 1.71875 48.546875 1.71875 Z M 48.546875 1.71875 "/></g></g></g><g fill="#ffffff" fill-opacity="1"><g transform="translate(363.852308, 141.778549)"><g><path d="M 42.078125 1.71875 C 35.378906 1.71875 29.394531 0.09375 24.125 -3.15625 C 18.863281 -6.414062 14.695312 -10.867188 11.625 -16.515625 C 8.5625 -22.160156 7.03125 -28.578125 7.03125 -35.765625 C 7.03125 -42.941406 8.5625 -49.332031 11.625 -54.9375 C 14.695312 -60.539062 18.863281 -64.945312 24.125 -68.15625 C 29.394531 -71.363281 35.378906 -72.96875 42.078125 -72.96875 C 47.441406 -72.96875 52.132812 -71.957031 56.15625 -69.9375 C 60.175781 -67.925781 63.429688 -65.101562 65.921875 -61.46875 L 65.921875 -103.40625 L 84.3125 -103.40625 L 84.3125 0 L 67.9375 0 L 65.921875 -10.203125 C 63.628906 -7.035156 60.585938 -4.253906 56.796875 -1.859375 C 53.015625 0.523438 48.109375 1.71875 42.078125 1.71875 Z M 45.953125 -14.359375 C 51.890625 -14.359375 56.75 -16.34375 60.53125 -20.3125 C 64.320312 -24.289062 66.21875 -29.394531 66.21875 -35.625 C 66.21875 -41.84375 64.320312 -46.9375 60.53125 -50.90625 C 56.75 -54.882812 51.890625 -56.875 45.953125 -56.875 C 40.117188 -56.875 35.285156 -54.910156 31.453125 -50.984375 C 27.617188 -47.054688 25.703125 -41.984375 25.703125 -35.765625 C 25.703125 -29.535156 27.617188 -24.410156 31.453125 -20.390625 C 35.285156 -16.367188 40.117188 -14.359375 45.953125 -14.359375 Z M 45.953125 -14.359375 "/></g></g></g><g fill="#ffffff" fill-opacity="1"><g transform="translate(457.494385, 141.778549)"><g><path d="M 18.234375 31.59375 L 34.75 -4.734375 L 30.453125 -4.734375 L 2.734375 -71.234375 L 22.6875 -71.234375 L 42.65625 -21.109375 L 63.484375 -71.234375 L 83.015625 -71.234375 L 37.765625 31.59375 Z M 18.234375 31.59375 "/></g></g></g><g fill="#ffffff" fill-opacity="1"><g transform="translate(537.635581, 141.778549)"><g><path d="M 33.890625 1.71875 C 27.765625 1.71875 22.738281 0.738281 18.8125 -1.21875 C 14.882812 -3.1875 11.960938 -5.796875 10.046875 -9.046875 C 8.140625 -12.304688 7.1875 -15.894531 7.1875 -19.8125 C 7.1875 -26.425781 9.769531 -31.789062 14.9375 -35.90625 C 20.101562 -40.019531 27.859375 -42.078125 38.203125 -42.078125 L 56.296875 -42.078125 L 56.296875 -43.8125 C 56.296875 -48.6875 54.90625 -52.273438 52.125 -54.578125 C 49.351562 -56.878906 45.910156 -58.03125 41.796875 -58.03125 C 38.054688 -58.03125 34.796875 -57.140625 32.015625 -55.359375 C 29.242188 -53.585938 27.523438 -50.984375 26.859375 -47.546875 L 8.90625 -47.546875 C 9.382812 -52.710938 11.128906 -57.207031 14.140625 -61.03125 C 17.160156 -64.863281 21.0625 -67.8125 25.84375 -69.875 C 30.632812 -71.9375 36 -72.96875 41.9375 -72.96875 C 52.082031 -72.96875 60.078125 -70.425781 65.921875 -65.34375 C 71.765625 -60.269531 74.6875 -53.09375 74.6875 -43.8125 L 74.6875 0 L 59.03125 0 L 57.3125 -11.484375 C 55.195312 -7.660156 52.25 -4.503906 48.46875 -2.015625 C 44.6875 0.472656 39.828125 1.71875 33.890625 1.71875 Z M 38.0625 -12.640625 C 43.320312 -12.640625 47.410156 -14.363281 50.328125 -17.8125 C 53.253906 -21.257812 55.101562 -25.519531 55.875 -30.59375 L 40.21875 -30.59375 C 35.332031 -30.59375 31.835938 -29.707031 29.734375 -27.9375 C 27.628906 -26.164062 26.578125 -23.988281 26.578125 -21.40625 C 26.578125 -18.625 27.628906 -16.46875 29.734375 -14.9375 C 31.835938 -13.40625 34.613281 -12.640625 38.0625 -12.640625 Z M 38.0625 -12.640625 "/></g></g></g><g fill="#ffffff" fill-opacity="1"><g transform="translate(620.50594, 141.778549)"><g><path d="M 9.328125 0 L 9.328125 -71.234375 L 25.5625 -71.234375 L 27.140625 -61.609375 C 29.441406 -65.054688 32.484375 -67.8125 36.265625 -69.875 C 40.046875 -71.9375 44.425781 -72.96875 49.40625 -72.96875 C 60.414062 -72.96875 68.21875 -68.703125 72.8125 -60.171875 C 75.40625 -64.097656 78.878906 -67.210938 83.234375 -69.515625 C 87.585938 -71.816406 92.347656 -72.96875 97.515625 -72.96875 C 106.804688 -72.96875 113.941406 -70.1875 118.921875 -64.625 C 123.898438 -59.070312 126.390625 -50.9375 126.390625 -40.21875 L 126.390625 0 L 108 0 L 108 -38.484375 C 108 -44.617188 106.828125 -49.3125 104.484375 -52.5625 C 102.140625 -55.820312 98.523438 -57.453125 93.640625 -57.453125 C 88.660156 -57.453125 84.660156 -55.628906 81.640625 -51.984375 C 78.628906 -48.347656 77.125 -43.273438 77.125 -36.765625 L 77.125 0 L 58.75 0 L 58.75 -38.484375 C 58.75 -44.617188 57.550781 -49.3125 55.15625 -52.5625 C 52.757812 -55.820312 49.070312 -57.453125 44.09375 -57.453125 C 39.207031 -57.453125 35.253906 -55.628906 32.234375 -51.984375 C 29.222656 -48.347656 27.71875 -43.273438 27.71875 -36.765625 L 27.71875 0 Z M 9.328125 0 "/></g></g></g></g></g></g><g clip-path="url(#99de825340)"><g transform="matrix(1, 0, 0, 1, 12, 176)"><g clip-path="url(#6f1fdd15e4)"><g fill="#ffffff" fill-opacity="1"><g transform="translate(0.896613, 44.03465)"><g><path d="M 2.984375 0 L 2.984375 -30.640625 L 8.578125 -30.640625 L 22.984375 -9.0625 L 22.984375 -30.640625 L 28.59375 -30.640625 L 28.59375 0 L 22.984375 0 L 8.578125 -21.546875 L 8.578125 0 Z M 2.984375 0 "/></g></g></g><g fill="#ffffff" fill-opacity="1"><g transform="translate(32.46102, 44.03465)"><g><path d="M 13.390625 0.53125 C 11.203125 0.53125 9.257812 0.0625 7.5625 -0.875 C 5.875 -1.8125 4.546875 -3.125 3.578125 -4.8125 C 2.617188 -6.507812 2.140625 -8.46875 2.140625 -10.6875 C 2.140625 -12.925781 2.613281 -14.921875 3.5625 -16.671875 C 4.507812 -18.429688 5.820312 -19.796875 7.5 -20.765625 C 9.1875 -21.742188 11.164062 -22.234375 13.4375 -22.234375 C 15.570312 -22.234375 17.457031 -21.765625 19.09375 -20.828125 C 20.726562 -19.898438 22.003906 -18.625 22.921875 -17 C 23.835938 -15.382812 24.296875 -13.585938 24.296875 -11.609375 C 24.296875 -11.285156 24.285156 -10.945312 24.265625 -10.59375 C 24.253906 -10.238281 24.238281 -9.875 24.21875 -9.5 L 7.703125 -9.5 C 7.816406 -7.8125 8.40625 -6.484375 9.46875 -5.515625 C 10.539062 -4.554688 11.835938 -4.078125 13.359375 -4.078125 C 14.492188 -4.078125 15.445312 -4.332031 16.21875 -4.84375 C 16.988281 -5.351562 17.566406 -6.015625 17.953125 -6.828125 L 23.640625 -6.828125 C 23.234375 -5.453125 22.554688 -4.203125 21.609375 -3.078125 C 20.660156 -1.960938 19.492188 -1.082031 18.109375 -0.4375 C 16.722656 0.207031 15.148438 0.53125 13.390625 0.53125 Z M 13.4375 -17.6875 C 12.070312 -17.6875 10.863281 -17.300781 9.8125 -16.53125 C 8.757812 -15.757812 8.085938 -14.582031 7.796875 -13 L 18.609375 -13 C 18.515625 -14.425781 17.988281 -15.5625 17.03125 -16.40625 C 16.070312 -17.257812 14.875 -17.6875 13.4375 -17.6875 Z M 13.4375 -17.6875 "/></g></g></g><g fill="#ffffff" fill-opacity="1"><g transform="translate(57.15205, 44.03465)"><g><path d="M 0.78125 0 L 8.671875 -10.859375 L 0.78125 -21.71875 L 6.78125 -21.71875 L 12.296875 -14.015625 L 17.78125 -21.71875 L 23.8125 -21.71875 L 15.890625 -10.859375 L 23.8125 0 L 17.78125 0 L 12.296875 -7.703125 L 6.78125 0 Z M 0.78125 0 "/></g></g></g><g fill="#ffffff" fill-opacity="1"><g transform="translate(81.711874, 44.03465)"><g><path d="M 12.515625 0 C 10.242188 0 8.421875 -0.550781 7.046875 -1.65625 C 5.671875 -2.769531 4.984375 -4.742188 4.984375 -7.578125 L 4.984375 -17.03125 L 1.265625 -17.03125 L 1.265625 -21.71875 L 4.984375 -21.71875 L 5.640625 -27.53125 L 10.59375 -27.53125 L 10.59375 -21.71875 L 16.46875 -21.71875 L 16.46875 -17.03125 L 10.59375 -17.03125 L 10.59375 -7.53125 C 10.59375 -6.476562 10.816406 -5.753906 11.265625 -5.359375 C 11.722656 -4.960938 12.503906 -4.765625 13.609375 -4.765625 L 16.328125 -4.765625 L 16.328125 0 Z M 12.515625 0 "/></g></g></g><g fill="#ffffff" fill-opacity="1"><g transform="translate(100.142684, 44.03465)"><g/></g></g><g fill="#ffffff" fill-opacity="1"><g transform="translate(110.561998, 44.03465)"><g><path d="M 16.375 0.53125 C 13.488281 0.53125 10.960938 -0.125 8.796875 -1.4375 C 6.640625 -2.757812 4.960938 -4.59375 3.765625 -6.9375 C 2.566406 -9.289062 1.96875 -12.023438 1.96875 -15.140625 C 1.96875 -18.296875 2.585938 -21.078125 3.828125 -23.484375 C 5.066406 -25.890625 6.832031 -27.769531 9.125 -29.125 C 11.414062 -30.488281 14.140625 -31.171875 17.296875 -31.171875 C 20.878906 -31.171875 23.851562 -30.304688 26.21875 -28.578125 C 28.582031 -26.859375 30.117188 -24.484375 30.828125 -21.453125 L 24.5625 -21.453125 C 24.09375 -22.878906 23.242188 -23.992188 22.015625 -24.796875 C 20.796875 -25.597656 19.222656 -26 17.296875 -26 C 14.234375 -26 11.867188 -25.03125 10.203125 -23.09375 C 8.535156 -21.15625 7.703125 -18.492188 7.703125 -15.109375 C 7.703125 -11.722656 8.523438 -9.101562 10.171875 -7.25 C 11.828125 -5.394531 14.070312 -4.46875 16.90625 -4.46875 C 19.675781 -4.46875 21.769531 -5.21875 23.1875 -6.71875 C 24.601562 -8.21875 25.457031 -10.195312 25.75 -12.65625 L 18 -12.65625 L 18 -16.859375 L 31.390625 -16.859375 L 31.390625 0 L 26.21875 0 L 25.78125 -4.03125 C 24.789062 -2.570312 23.550781 -1.445312 22.0625 -0.65625 C 20.570312 0.132812 18.675781 0.53125 16.375 0.53125 Z M 16.375 0.53125 "/></g></g></g><g fill="#ffffff" fill-opacity="1"><g transform="translate(144.402893, 44.03465)"><g><path d="M 13.390625 0.53125 C 11.203125 0.53125 9.257812 0.0625 7.5625 -0.875 C 5.875 -1.8125 4.546875 -3.125 3.578125 -4.8125 C 2.617188 -6.507812 2.140625 -8.46875 2.140625 -10.6875 C 2.140625 -12.925781 2.613281 -14.921875 3.5625 -16.671875 C 4.507812 -18.429688 5.820312 -19.796875 7.5 -20.765625 C 9.1875 -21.742188 11.164062 -22.234375 13.4375 -22.234375 C 15.570312 -22.234375 17.457031 -21.765625 19.09375 -20.828125 C 20.726562 -19.898438 22.003906 -18.625 22.921875 -17 C 23.835938 -15.382812 24.296875 -13.585938 24.296875 -11.609375 C 24.296875 -11.285156 24.285156 -10.945312 24.265625 -10.59375 C 24.253906 -10.238281 24.238281 -9.875 24.21875 -9.5 L 7.703125 -9.5 C 7.816406 -7.8125 8.40625 -6.484375 9.46875 -5.515625 C 10.539062 -4.554688 11.835938 -4.078125 13.359375 -4.078125 C 14.492188 -4.078125 15.445312 -4.332031 16.21875 -4.84375 C 16.988281 -5.351562 17.566406 -6.015625 17.953125 -6.828125 L 23.640625 -6.828125 C 23.234375 -5.453125 22.554688 -4.203125 21.609375 -3.078125 C 20.660156 -1.960938 19.492188 -1.082031 18.109375 -0.4375 C 16.722656 0.207031 15.148438 0.53125 13.390625 0.53125 Z M 13.4375 -17.6875 C 12.070312 -17.6875 10.863281 -17.300781 9.8125 -16.53125 C 8.757812 -15.757812 8.085938 -14.582031 7.796875 -13 L 18.609375 -13 C 18.515625 -14.425781 17.988281 -15.5625 17.03125 -16.40625 C 16.070312 -17.257812 14.875 -17.6875 13.4375 -17.6875 Z M 13.4375 -17.6875 "/></g></g></g><g fill="#ffffff" fill-opacity="1"><g transform="translate(170.582526, 44.03465)"><g><path d="M 2.84375 0 L 2.84375 -21.71875 L 7.796875 -21.71875 L 8.234375 -18.03125 C 8.898438 -19.320312 9.867188 -20.34375 11.140625 -21.09375 C 12.410156 -21.851562 13.90625 -22.234375 15.625 -22.234375 C 18.3125 -22.234375 20.398438 -21.382812 21.890625 -19.6875 C 23.378906 -18 24.125 -15.523438 24.125 -12.265625 L 24.125 0 L 18.515625 0 L 18.515625 -11.734375 C 18.515625 -13.597656 18.132812 -15.023438 17.375 -16.015625 C 16.625 -17.015625 15.441406 -17.515625 13.828125 -17.515625 C 12.253906 -17.515625 10.960938 -16.957031 9.953125 -15.84375 C 8.953125 -14.738281 8.453125 -13.191406 8.453125 -11.203125 L 8.453125 0 Z M 2.84375 0 "/></g></g></g><g fill="#ffffff" fill-opacity="1"><g transform="translate(197.199944, 44.03465)"><g><path d="M 13.390625 0.53125 C 11.203125 0.53125 9.257812 0.0625 7.5625 -0.875 C 5.875 -1.8125 4.546875 -3.125 3.578125 -4.8125 C 2.617188 -6.507812 2.140625 -8.46875 2.140625 -10.6875 C 2.140625 -12.925781 2.613281 -14.921875 3.5625 -16.671875 C 4.507812 -18.429688 5.820312 -19.796875 7.5 -20.765625 C 9.1875 -21.742188 11.164062 -22.234375 13.4375 -22.234375 C 15.570312 -22.234375 17.457031 -21.765625 19.09375 -20.828125 C 20.726562 -19.898438 22.003906 -18.625 22.921875 -17 C 23.835938 -15.382812 24.296875 -13.585938 24.296875 -11.609375 C 24.296875 -11.285156 24.285156 -10.945312 24.265625 -10.59375 C 24.253906 -10.238281 24.238281 -9.875 24.21875 -9.5 L 7.703125 -9.5 C 7.816406 -7.8125 8.40625 -6.484375 9.46875 -5.515625 C 10.539062 -4.554688 11.835938 -4.078125 13.359375 -4.078125 C 14.492188 -4.078125 15.445312 -4.332031 16.21875 -4.84375 C 16.988281 -5.351562 17.566406 -6.015625 17.953125 -6.828125 L 23.640625 -6.828125 C 23.234375 -5.453125 22.554688 -4.203125 21.609375 -3.078125 C 20.660156 -1.960938 19.492188 -1.082031 18.109375 -0.4375 C 16.722656 0.207031 15.148438 0.53125 13.390625 0.53125 Z M 13.4375 -17.6875 C 12.070312 -17.6875 10.863281 -17.300781 9.8125 -16.53125 C 8.757812 -15.757812 8.085938 -14.582031 7.796875 -13 L 18.609375 -13 C 18.515625 -14.425781 17.988281 -15.5625 17.03125 -16.40625 C 16.070312 -17.257812 14.875 -17.6875 13.4375 -17.6875 Z M 13.4375 -17.6875 "/></g></g></g><g fill="#ffffff" fill-opacity="1"><g transform="translate(223.379577, 44.03465)"><g><path d="M 2.84375 0 L 2.84375 -21.71875 L 7.84375 -21.71875 L 8.359375 -17.640625 C 9.148438 -19.046875 10.222656 -20.160156 11.578125 -20.984375 C 12.929688 -21.816406 14.53125 -22.234375 16.375 -22.234375 L 16.375 -16.328125 L 14.796875 -16.328125 C 13.566406 -16.328125 12.46875 -16.132812 11.5 -15.75 C 10.539062 -15.375 9.789062 -14.71875 9.25 -13.78125 C 8.71875 -12.851562 8.453125 -11.554688 8.453125 -9.890625 L 8.453125 0 Z M 2.84375 0 "/></g></g></g><g fill="#ffffff" fill-opacity="1"><g transform="translate(240.715925, 44.03465)"><g><path d="M 10.328125 0.53125 C 8.460938 0.53125 6.929688 0.234375 5.734375 -0.359375 C 4.535156 -0.960938 3.644531 -1.757812 3.0625 -2.75 C 2.476562 -3.75 2.1875 -4.847656 2.1875 -6.046875 C 2.1875 -8.054688 2.972656 -9.6875 4.546875 -10.9375 C 6.128906 -12.195312 8.492188 -12.828125 11.640625 -12.828125 L 17.15625 -12.828125 L 17.15625 -13.359375 C 17.15625 -14.847656 16.734375 -15.941406 15.890625 -16.640625 C 15.046875 -17.335938 13.992188 -17.6875 12.734375 -17.6875 C 11.597656 -17.6875 10.609375 -17.414062 9.765625 -16.875 C 8.921875 -16.332031 8.394531 -15.535156 8.1875 -14.484375 L 2.71875 -14.484375 C 2.863281 -16.066406 3.394531 -17.441406 4.3125 -18.609375 C 5.226562 -19.773438 6.414062 -20.671875 7.875 -21.296875 C 9.332031 -21.921875 10.96875 -22.234375 12.78125 -22.234375 C 15.875 -22.234375 18.3125 -21.457031 20.09375 -19.90625 C 21.875 -18.363281 22.765625 -16.179688 22.765625 -13.359375 L 22.765625 0 L 18 0 L 17.46875 -3.5 C 16.820312 -2.332031 15.921875 -1.367188 14.765625 -0.609375 C 13.617188 0.148438 12.140625 0.53125 10.328125 0.53125 Z M 11.609375 -3.859375 C 13.210938 -3.859375 14.457031 -4.378906 15.34375 -5.421875 C 16.238281 -6.472656 16.800781 -7.773438 17.03125 -9.328125 L 12.265625 -9.328125 C 10.773438 -9.328125 9.707031 -9.054688 9.0625 -8.515625 C 8.414062 -7.972656 8.09375 -7.304688 8.09375 -6.515625 C 8.09375 -5.671875 8.414062 -5.015625 9.0625 -4.546875 C 9.707031 -4.085938 10.554688 -3.859375 11.609375 -3.859375 Z M 11.609375 -3.859375 "/></g></g></g><g fill="#ffffff" fill-opacity="1"><g transform="translate(265.669719, 44.03465)"><g><path d="M 12.515625 0 C 10.242188 0 8.421875 -0.550781 7.046875 -1.65625 C 5.671875 -2.769531 4.984375 -4.742188 4.984375 -7.578125 L 4.984375 -17.03125 L 1.265625 -17.03125 L 1.265625 -21.71875 L 4.984375 -21.71875 L 5.640625 -27.53125 L 10.59375 -27.53125 L 10.59375 -21.71875 L 16.46875 -21.71875 L 16.46875 -17.03125 L 10.59375 -17.03125 L 10.59375 -7.53125 C 10.59375 -6.476562 10.816406 -5.753906 11.265625 -5.359375 C 11.722656 -4.960938 12.503906 -4.765625 13.609375 -4.765625 L 16.328125 -4.765625 L 16.328125 0 Z M 12.515625 0 "/></g></g></g><g fill="#ffffff" fill-opacity="1"><g transform="translate(284.10053, 44.03465)"><g><path d="M 5.859375 -25.09375 C 4.835938 -25.09375 4 -25.394531 3.34375 -26 C 2.6875 -26.613281 2.359375 -27.390625 2.359375 -28.328125 C 2.359375 -29.265625 2.6875 -30.03125 3.34375 -30.625 C 4 -31.21875 4.835938 -31.515625 5.859375 -31.515625 C 6.890625 -31.515625 7.734375 -31.21875 8.390625 -30.625 C 9.046875 -30.03125 9.375 -29.265625 9.375 -28.328125 C 9.375 -27.390625 9.046875 -26.613281 8.390625 -26 C 7.734375 -25.394531 6.890625 -25.09375 5.859375 -25.09375 Z M 3.0625 0 L 3.0625 -21.71875 L 8.671875 -21.71875 L 8.671875 0 Z M 3.0625 0 "/></g></g></g><g fill="#ffffff" fill-opacity="1"><g transform="translate(295.789441, 44.03465)"><g><path d="M 13.265625 0.53125 C 11.160156 0.53125 9.269531 0.0507812 7.59375 -0.90625 C 5.914062 -1.875 4.585938 -3.210938 3.609375 -4.921875 C 2.628906 -6.628906 2.140625 -8.609375 2.140625 -10.859375 C 2.140625 -13.109375 2.632812 -15.082031 3.625 -16.78125 C 4.625 -18.488281 5.960938 -19.820312 7.640625 -20.78125 C 9.316406 -21.75 11.207031 -22.234375 13.3125 -22.234375 C 15.382812 -22.234375 17.257812 -21.75 18.9375 -20.78125 C 20.613281 -19.820312 21.941406 -18.488281 22.921875 -16.78125 C 23.898438 -15.082031 24.390625 -13.109375 24.390625 -10.859375 C 24.390625 -8.609375 23.898438 -6.628906 22.921875 -4.921875 C 21.941406 -3.210938 20.601562 -1.875 18.90625 -0.90625 C 17.21875 0.0507812 15.335938 0.53125 13.265625 0.53125 Z M 13.265625 -4.328125 C 14.722656 -4.328125 15.988281 -4.875 17.0625 -5.96875 C 18.144531 -7.070312 18.6875 -8.703125 18.6875 -10.859375 C 18.6875 -13.015625 18.144531 -14.640625 17.0625 -15.734375 C 15.988281 -16.828125 14.738281 -17.375 13.3125 -17.375 C 11.820312 -17.375 10.539062 -16.828125 9.46875 -15.734375 C 8.40625 -14.640625 7.875 -13.015625 7.875 -10.859375 C 7.875 -8.703125 8.40625 -7.070312 9.46875 -5.96875 C 10.539062 -4.875 11.804688 -4.328125 13.265625 -4.328125 Z M 13.265625 -4.328125 "/></g></g></g><g fill="#ffffff" fill-opacity="1"><g transform="translate(322.319297, 44.03465)"><g><path d="M 2.84375 0 L 2.84375 -21.71875 L 7.796875 -21.71875 L 8.234375 -18.03125 C 8.898438 -19.320312 9.867188 -20.34375 11.140625 -21.09375 C 12.410156 -21.851562 13.90625 -22.234375 15.625 -22.234375 C 18.3125 -22.234375 20.398438 -21.382812 21.890625 -19.6875 C 23.378906 -18 24.125 -15.523438 24.125 -12.265625 L 24.125 0 L 18.515625 0 L 18.515625 -11.734375 C 18.515625 -13.597656 18.132812 -15.023438 17.375 -16.015625 C 16.625 -17.015625 15.441406 -17.515625 13.828125 -17.515625 C 12.253906 -17.515625 10.960938 -16.957031 9.953125 -15.84375 C 8.953125 -14.738281 8.453125 -13.191406 8.453125 -11.203125 L 8.453125 0 Z M 2.84375 0 "/></g></g></g><g fill="#ffffff" fill-opacity="1"><g transform="translate(348.936716, 44.03465)"><g/></g></g><g fill="#ffffff" fill-opacity="1"><g transform="translate(359.356041, 44.03465)"><g><path d="M 2.984375 0 L 2.984375 -30.640625 L 22.984375 -30.640625 L 22.984375 -26.140625 L 8.578125 -26.140625 L 8.578125 -17.734375 L 21.671875 -17.734375 L 21.671875 -13.359375 L 8.578125 -13.359375 L 8.578125 -4.515625 L 22.984375 -4.515625 L 22.984375 0 Z M 2.984375 0 "/></g></g></g><g fill="#ffffff" fill-opacity="1"><g transform="translate(384.660081, 44.03465)"><g><path d="M 2.84375 0 L 2.84375 -21.71875 L 7.796875 -21.71875 L 8.234375 -18.03125 C 8.898438 -19.320312 9.867188 -20.34375 11.140625 -21.09375 C 12.410156 -21.851562 13.90625 -22.234375 15.625 -22.234375 C 18.3125 -22.234375 20.398438 -21.382812 21.890625 -19.6875 C 23.378906 -18 24.125 -15.523438 24.125 -12.265625 L 24.125 0 L 18.515625 0 L 18.515625 -11.734375 C 18.515625 -13.597656 18.132812 -15.023438 17.375 -16.015625 C 16.625 -17.015625 15.441406 -17.515625 13.828125 -17.515625 C 12.253906 -17.515625 10.960938 -16.957031 9.953125 -15.84375 C 8.953125 -14.738281 8.453125 -13.191406 8.453125 -11.203125 L 8.453125 0 Z M 2.84375 0 "/></g></g></g><g fill="#ffffff" fill-opacity="1"><g transform="translate(411.277522, 44.03465)"><g><path d="M 12.515625 0 C 10.242188 0 8.421875 -0.550781 7.046875 -1.65625 C 5.671875 -2.769531 4.984375 -4.742188 4.984375 -7.578125 L 4.984375 -17.03125 L 1.265625 -17.03125 L 1.265625 -21.71875 L 4.984375 -21.71875 L 5.640625 -27.53125 L 10.59375 -27.53125 L 10.59375 -21.71875 L 16.46875 -21.71875 L 16.46875 -17.03125 L 10.59375 -17.03125 L 10.59375 -7.53125 C 10.59375 -6.476562 10.816406 -5.753906 11.265625 -5.359375 C 11.722656 -4.960938 12.503906 -4.765625 13.609375 -4.765625 L 16.328125 -4.765625 L 16.328125 0 Z M 12.515625 0 "/></g></g></g><g fill="#ffffff" fill-opacity="1"><g transform="translate(429.708332, 44.03465)"><g><path d="M 2.84375 0 L 2.84375 -21.71875 L 7.84375 -21.71875 L 8.359375 -17.640625 C 9.148438 -19.046875 10.222656 -20.160156 11.578125 -20.984375 C 12.929688 -21.816406 14.53125 -22.234375 16.375 -22.234375 L 16.375 -16.328125 L 14.796875 -16.328125 C 13.566406 -16.328125 12.46875 -16.132812 11.5 -15.75 C 10.539062 -15.375 9.789062 -14.71875 9.25 -13.78125 C 8.71875 -12.851562 8.453125 -11.554688 8.453125 -9.890625 L 8.453125 0 Z M 2.84375 0 "/></g></g></g><g fill="#ffffff" fill-opacity="1"><g transform="translate(446.650619, 44.03465)"><g><path d="M 13.390625 0.53125 C 11.203125 0.53125 9.257812 0.0625 7.5625 -0.875 C 5.875 -1.8125 4.546875 -3.125 3.578125 -4.8125 C 2.617188 -6.507812 2.140625 -8.46875 2.140625 -10.6875 C 2.140625 -12.925781 2.613281 -14.921875 3.5625 -16.671875 C 4.507812 -18.429688 5.820312 -19.796875 7.5 -20.765625 C 9.1875 -21.742188 11.164062 -22.234375 13.4375 -22.234375 C 15.570312 -22.234375 17.457031 -21.765625 19.09375 -20.828125 C 20.726562 -19.898438 22.003906 -18.625 22.921875 -17 C 23.835938 -15.382812 24.296875 -13.585938 24.296875 -11.609375 C 24.296875 -11.285156 24.285156 -10.945312 24.265625 -10.59375 C 24.253906 -10.238281 24.238281 -9.875 24.21875 -9.5 L 7.703125 -9.5 C 7.816406 -7.8125 8.40625 -6.484375 9.46875 -5.515625 C 10.539062 -4.554688 11.835938 -4.078125 13.359375 -4.078125 C 14.492188 -4.078125 15.445312 -4.332031 16.21875 -4.84375 C 16.988281 -5.351562 17.566406 -6.015625 17.953125 -6.828125 L 23.640625 -6.828125 C 23.234375 -5.453125 22.554688 -4.203125 21.609375 -3.078125 C 20.660156 -1.960938 19.492188 -1.082031 18.109375 -0.4375 C 16.722656 0.207031 15.148438 0.53125 13.390625 0.53125 Z M 13.4375 -17.6875 C 12.070312 -17.6875 10.863281 -17.300781 9.8125 -16.53125 C 8.757812 -15.757812 8.085938 -14.582031 7.796875 -13 L 18.609375 -13 C 18.515625 -14.425781 17.988281 -15.5625 17.03125 -16.40625 C 16.070312 -17.257812 14.875 -17.6875 13.4375 -17.6875 Z M 13.4375 -17.6875 "/></g></g></g><g fill="#ffffff" fill-opacity="1"><g transform="translate(472.830274, 44.03465)"><g><path d="M 2.84375 9.625 L 2.84375 -21.71875 L 7.84375 -21.71875 L 8.453125 -18.609375 C 9.148438 -19.566406 10.070312 -20.410156 11.21875 -21.140625 C 12.375 -21.867188 13.875 -22.234375 15.71875 -22.234375 C 17.757812 -22.234375 19.582031 -21.738281 21.1875 -20.75 C 22.789062 -19.757812 24.0625 -18.398438 25 -16.671875 C 25.9375 -14.953125 26.40625 -13 26.40625 -10.8125 C 26.40625 -8.625 25.9375 -6.675781 25 -4.96875 C 24.0625 -3.257812 22.789062 -1.914062 21.1875 -0.9375 C 19.582031 0.0390625 17.757812 0.53125 15.71875 0.53125 C 14.082031 0.53125 12.648438 0.222656 11.421875 -0.390625 C 10.203125 -1.003906 9.210938 -1.867188 8.453125 -2.984375 L 8.453125 9.625 Z M 14.53125 -4.375 C 16.3125 -4.375 17.785156 -4.972656 18.953125 -6.171875 C 20.117188 -7.367188 20.703125 -8.914062 20.703125 -10.8125 C 20.703125 -12.707031 20.117188 -14.269531 18.953125 -15.5 C 17.785156 -16.726562 16.3125 -17.34375 14.53125 -17.34375 C 12.726562 -17.34375 11.25 -16.734375 10.09375 -15.515625 C 8.9375 -14.304688 8.359375 -12.753906 8.359375 -10.859375 C 8.359375 -8.960938 8.9375 -7.40625 10.09375 -6.1875 C 11.25 -4.976562 12.726562 -4.375 14.53125 -4.375 Z M 14.53125 -4.375 "/></g></g></g><g fill="#ffffff" fill-opacity="1"><g transform="translate(501.373933, 44.03465)"><g><path d="M 2.84375 0 L 2.84375 -21.71875 L 7.84375 -21.71875 L 8.359375 -17.640625 C 9.148438 -19.046875 10.222656 -20.160156 11.578125 -20.984375 C 12.929688 -21.816406 14.53125 -22.234375 16.375 -22.234375 L 16.375 -16.328125 L 14.796875 -16.328125 C 13.566406 -16.328125 12.46875 -16.132812 11.5 -15.75 C 10.539062 -15.375 9.789062 -14.71875 9.25 -13.78125 C 8.71875 -12.851562 8.453125 -11.554688 8.453125 -9.890625 L 8.453125 0 Z M 2.84375 0 "/></g></g></g><g fill="#ffffff" fill-opacity="1"><g transform="translate(518.316265, 44.03465)"><g><path d="M 13.390625 0.53125 C 11.203125 0.53125 9.257812 0.0625 7.5625 -0.875 C 5.875 -1.8125 4.546875 -3.125 3.578125 -4.8125 C 2.617188 -6.507812 2.140625 -8.46875 2.140625 -10.6875 C 2.140625 -12.925781 2.613281 -14.921875 3.5625 -16.671875 C 4.507812 -18.429688 5.820312 -19.796875 7.5 -20.765625 C 9.1875 -21.742188 11.164062 -22.234375 13.4375 -22.234375 C 15.570312 -22.234375 17.457031 -21.765625 19.09375 -20.828125 C 20.726562 -19.898438 22.003906 -18.625 22.921875 -17 C 23.835938 -15.382812 24.296875 -13.585938 24.296875 -11.609375 C 24.296875 -11.285156 24.285156 -10.945312 24.265625 -10.59375 C 24.253906 -10.238281 24.238281 -9.875 24.21875 -9.5 L 7.703125 -9.5 C 7.816406 -7.8125 8.40625 -6.484375 9.46875 -5.515625 C 10.539062 -4.554688 11.835938 -4.078125 13.359375 -4.078125 C 14.492188 -4.078125 15.445312 -4.332031 16.21875 -4.84375 C 16.988281 -5.351562 17.566406 -6.015625 17.953125 -6.828125 L 23.640625 -6.828125 C 23.234375 -5.453125 22.554688 -4.203125 21.609375 -3.078125 C 20.660156 -1.960938 19.492188 -1.082031 18.109375 -0.4375 C 16.722656 0.207031 15.148438 0.53125 13.390625 0.53125 Z M 13.4375 -17.6875 C 12.070312 -17.6875 10.863281 -17.300781 9.8125 -16.53125 C 8.757812 -15.757812 8.085938 -14.582031 7.796875 -13 L 18.609375 -13 C 18.515625 -14.425781 17.988281 -15.5625 17.03125 -16.40625 C 16.070312 -17.257812 14.875 -17.6875 13.4375 -17.6875 Z M 13.4375 -17.6875 "/></g></g></g><g fill="#ffffff" fill-opacity="1"><g transform="translate(544.495875, 44.03465)"><g><path d="M 2.84375 0 L 2.84375 -21.71875 L 7.796875 -21.71875 L 8.234375 -18.03125 C 8.898438 -19.320312 9.867188 -20.34375 11.140625 -21.09375 C 12.410156 -21.851562 13.90625 -22.234375 15.625 -22.234375 C 18.3125 -22.234375 20.398438 -21.382812 21.890625 -19.6875 C 23.378906 -18 24.125 -15.523438 24.125 -12.265625 L 24.125 0 L 18.515625 0 L 18.515625 -11.734375 C 18.515625 -13.597656 18.132812 -15.023438 17.375 -16.015625 C 16.625 -17.015625 15.441406 -17.515625 13.828125 -17.515625 C 12.253906 -17.515625 10.960938 -16.957031 9.953125 -15.84375 C 8.953125 -14.738281 8.453125 -13.191406 8.453125 -11.203125 L 8.453125 0 Z M 2.84375 0 "/></g></g></g><g fill="#ffffff" fill-opacity="1"><g transform="translate(571.113315, 44.03465)"><g><path d="M 13.390625 0.53125 C 11.203125 0.53125 9.257812 0.0625 7.5625 -0.875 C 5.875 -1.8125 4.546875 -3.125 3.578125 -4.8125 C 2.617188 -6.507812 2.140625 -8.46875 2.140625 -10.6875 C 2.140625 -12.925781 2.613281 -14.921875 3.5625 -16.671875 C 4.507812 -18.429688 5.820312 -19.796875 7.5 -20.765625 C 9.1875 -21.742188 11.164062 -22.234375 13.4375 -22.234375 C 15.570312 -22.234375 17.457031 -21.765625 19.09375 -20.828125 C 20.726562 -19.898438 22.003906 -18.625 22.921875 -17 C 23.835938 -15.382812 24.296875 -13.585938 24.296875 -11.609375 C 24.296875 -11.285156 24.285156 -10.945312 24.265625 -10.59375 C 24.253906 -10.238281 24.238281 -9.875 24.21875 -9.5 L 7.703125 -9.5 C 7.816406 -7.8125 8.40625 -6.484375 9.46875 -5.515625 C 10.539062 -4.554688 11.835938 -4.078125 13.359375 -4.078125 C 14.492188 -4.078125 15.445312 -4.332031 16.21875 -4.84375 C 16.988281 -5.351562 17.566406 -6.015625 17.953125 -6.828125 L 23.640625 -6.828125 C 23.234375 -5.453125 22.554688 -4.203125 21.609375 -3.078125 C 20.660156 -1.960938 19.492188 -1.082031 18.109375 -0.4375 C 16.722656 0.207031 15.148438 0.53125 13.390625 0.53125 Z M 13.4375 -17.6875 C 12.070312 -17.6875 10.863281 -17.300781 9.8125 -16.53125 C 8.757812 -15.757812 8.085938 -14.582031 7.796875 -13 L 18.609375 -13 C 18.515625 -14.425781 17.988281 -15.5625 17.03125 -16.40625 C 16.070312 -17.257812 14.875 -17.6875 13.4375 -17.6875 Z M 13.4375 -17.6875 "/></g></g></g><g fill="#ffffff" fill-opacity="1"><g transform="translate(597.292926, 44.03465)"><g><path d="M 10.984375 0.53125 C 8.273438 0.53125 6.179688 -0.3125 4.703125 -2 C 3.234375 -3.695312 2.5 -6.179688 2.5 -9.453125 L 2.5 -21.71875 L 8.0625 -21.71875 L 8.0625 -9.984375 C 8.0625 -8.117188 8.4375 -6.6875 9.1875 -5.6875 C 9.945312 -4.695312 11.144531 -4.203125 12.78125 -4.203125 C 14.332031 -4.203125 15.609375 -4.753906 16.609375 -5.859375 C 17.617188 -6.972656 18.125 -8.519531 18.125 -10.5 L 18.125 -21.71875 L 23.734375 -21.71875 L 23.734375 0 L 18.78125 0 L 18.34375 -3.671875 C 17.675781 -2.390625 16.707031 -1.367188 15.4375 -0.609375 C 14.164062 0.148438 12.679688 0.53125 10.984375 0.53125 Z M 10.984375 0.53125 "/></g></g></g><g fill="#ffffff" fill-opacity="1"><g transform="translate(623.910366, 44.03465)"><g><path d="M 2.84375 0 L 2.84375 -21.71875 L 7.84375 -21.71875 L 8.359375 -17.640625 C 9.148438 -19.046875 10.222656 -20.160156 11.578125 -20.984375 C 12.929688 -21.816406 14.53125 -22.234375 16.375 -22.234375 L 16.375 -16.328125 L 14.796875 -16.328125 C 13.566406 -16.328125 12.46875 -16.132812 11.5 -15.75 C 10.539062 -15.375 9.789062 -14.71875 9.25 -13.78125 C 8.71875 -12.851562 8.453125 -11.554688 8.453125 -9.890625 L 8.453125 0 Z M 2.84375 0 "/></g></g></g><g fill="#ffffff" fill-opacity="1"><g transform="translate(641.246691, 44.03465)"><g><path d="M 11.828125 0.53125 C 9.898438 0.53125 8.203125 0.21875 6.734375 -0.40625 C 5.273438 -1.039062 4.109375 -1.910156 3.234375 -3.015625 C 2.359375 -4.128906 1.832031 -5.414062 1.65625 -6.875 L 7.3125 -6.875 C 7.488281 -6.03125 7.960938 -5.304688 8.734375 -4.703125 C 9.503906 -4.109375 10.503906 -3.8125 11.734375 -3.8125 C 12.960938 -3.8125 13.859375 -4.054688 14.421875 -4.546875 C 14.992188 -5.046875 15.28125 -5.617188 15.28125 -6.265625 C 15.28125 -7.191406 14.867188 -7.820312 14.046875 -8.15625 C 13.234375 -8.5 12.097656 -8.832031 10.640625 -9.15625 C 9.703125 -9.351562 8.75 -9.597656 7.78125 -9.890625 C 6.820312 -10.179688 5.941406 -10.550781 5.140625 -11 C 4.335938 -11.457031 3.6875 -12.039062 3.1875 -12.75 C 2.695312 -13.46875 2.453125 -14.351562 2.453125 -15.40625 C 2.453125 -17.332031 3.21875 -18.953125 4.75 -20.265625 C 6.28125 -21.578125 8.429688 -22.234375 11.203125 -22.234375 C 13.773438 -22.234375 15.828125 -21.632812 17.359375 -20.4375 C 18.890625 -19.25 19.800781 -17.601562 20.09375 -15.5 L 14.796875 -15.5 C 14.472656 -17.101562 13.265625 -17.90625 11.171875 -17.90625 C 10.117188 -17.90625 9.304688 -17.703125 8.734375 -17.296875 C 8.160156 -16.890625 7.875 -16.378906 7.875 -15.765625 C 7.875 -15.117188 8.296875 -14.601562 9.140625 -14.21875 C 9.992188 -13.84375 11.117188 -13.492188 12.515625 -13.171875 C 14.035156 -12.828125 15.429688 -12.441406 16.703125 -12.015625 C 17.972656 -11.597656 18.988281 -10.972656 19.75 -10.140625 C 20.507812 -9.304688 20.890625 -8.113281 20.890625 -6.5625 C 20.910156 -5.21875 20.554688 -4.003906 19.828125 -2.921875 C 19.097656 -1.847656 18.046875 -1.003906 16.671875 -0.390625 C 15.304688 0.222656 13.691406 0.53125 11.828125 0.53125 Z M 11.828125 0.53125 "/></g></g></g><g fill="#ffffff" fill-opacity="1"><g transform="translate(664.23052, 44.03465)"><g><path d="M 2.84375 0 L 2.84375 -31.515625 L 8.453125 -31.515625 L 8.453125 -18.390625 C 9.179688 -19.585938 10.164062 -20.523438 11.40625 -21.203125 C 12.644531 -21.890625 14.066406 -22.234375 15.671875 -22.234375 C 18.359375 -22.234375 20.4375 -21.382812 21.90625 -19.6875 C 23.382812 -18 24.125 -15.523438 24.125 -12.265625 L 24.125 0 L 18.5625 0 L 18.5625 -11.734375 C 18.5625 -13.597656 18.1875 -15.023438 17.4375 -16.015625 C 16.695312 -17.015625 15.523438 -17.515625 13.921875 -17.515625 C 12.347656 -17.515625 11.039062 -16.957031 10 -15.84375 C 8.96875 -14.738281 8.453125 -13.191406 8.453125 -11.203125 L 8.453125 0 Z M 2.84375 0 "/></g></g></g><g fill="#ffffff" fill-opacity="1"><g transform="translate(690.847915, 44.03465)"><g><path d="M 5.859375 -25.09375 C 4.835938 -25.09375 4 -25.394531 3.34375 -26 C 2.6875 -26.613281 2.359375 -27.390625 2.359375 -28.328125 C 2.359375 -29.265625 2.6875 -30.03125 3.34375 -30.625 C 4 -31.21875 4.835938 -31.515625 5.859375 -31.515625 C 6.890625 -31.515625 7.734375 -31.21875 8.390625 -30.625 C 9.046875 -30.03125 9.375 -29.265625 9.375 -28.328125 C 9.375 -27.390625 9.046875 -26.613281 8.390625 -26 C 7.734375 -25.394531 6.890625 -25.09375 5.859375 -25.09375 Z M 3.0625 0 L 3.0625 -21.71875 L 8.671875 -21.71875 L 8.671875 0 Z M 3.0625 0 "/></g></g></g><g fill="#ffffff" fill-opacity="1"><g transform="translate(702.536826, 44.03465)"><g><path d="M 2.84375 9.625 L 2.84375 -21.71875 L 7.84375 -21.71875 L 8.453125 -18.609375 C 9.148438 -19.566406 10.070312 -20.410156 11.21875 -21.140625 C 12.375 -21.867188 13.875 -22.234375 15.71875 -22.234375 C 17.757812 -22.234375 19.582031 -21.738281 21.1875 -20.75 C 22.789062 -19.757812 24.0625 -18.398438 25 -16.671875 C 25.9375 -14.953125 26.40625 -13 26.40625 -10.8125 C 26.40625 -8.625 25.9375 -6.675781 25 -4.96875 C 24.0625 -3.257812 22.789062 -1.914062 21.1875 -0.9375 C 19.582031 0.0390625 17.757812 0.53125 15.71875 0.53125 C 14.082031 0.53125 12.648438 0.222656 11.421875 -0.390625 C 10.203125 -1.003906 9.210938 -1.867188 8.453125 -2.984375 L 8.453125 9.625 Z M 14.53125 -4.375 C 16.3125 -4.375 17.785156 -4.972656 18.953125 -6.171875 C 20.117188 -7.367188 20.703125 -8.914062 20.703125 -10.8125 C 20.703125 -12.707031 20.117188 -14.269531 18.953125 -15.5 C 17.785156 -16.726562 16.3125 -17.34375 14.53125 -17.34375 C 12.726562 -17.34375 11.25 -16.734375 10.09375 -15.515625 C 8.9375 -14.304688 8.359375 -12.753906 8.359375 -10.859375 C 8.359375 -8.960938 8.9375 -7.40625 10.09375 -6.1875 C 11.25 -4.976562 12.726562 -4.375 14.53125 -4.375 Z M 14.53125 -4.375 "/></g></g></g></g></g></g></g></g></svg>